Coordinates
version=1
nRows=60
nColumns=12
inDegrees=yes

Units are S.I. units (second, meters, Newtons, ...)
Angles are in degrees

endheader
time	SC_y	SC_z	SC_x	AC_y	AC_z	AC_x	GH_y	GH_z	GH_yy	EL_x	PS_y
       0.0              -38.03          8.089          71.02          62.45          4.181         -16.21          132.9         -12.74         -40.47           91.2           26.3
   0.04811              -38.03          8.093          71.01          62.45          4.179         -16.21          132.9         -12.74         -40.45           91.2          26.32
   0.09621              -38.03          8.096           71.0          62.45          4.177          -16.2          132.9         -12.73         -40.44          91.21          26.33
    0.1443              -38.04            8.1          70.99          62.45          4.176          -16.2          132.9         -12.73         -40.42          91.21          26.35
    0.1924              -38.04          8.104          70.98          62.44          4.174         -16.19          132.9         -12.72         -40.41          91.21          26.37
    0.2405              -38.04          8.109          70.96          62.44          4.171         -16.19          132.8         -12.72         -40.39          91.22          26.39
    0.2886              -38.04          8.113          70.95          62.44          4.169         -16.18          132.8         -12.71         -40.37          91.22          26.41
    0.3367              -38.05          8.118          70.94          62.44          4.167         -16.17          132.8          -12.7         -40.35          91.22          26.43
    0.3849              -38.05          8.124          70.92          62.44          4.164         -16.17          132.8          -12.7         -40.33          91.23          26.45
     0.433              -38.05          8.129           70.9          62.44          4.161         -16.16          132.8         -12.69         -40.31          91.23          26.48
    0.4811              -38.06          8.136          70.89          62.43          4.158         -16.15          132.8         -12.68         -40.29          91.24           26.5
    0.5292              -38.06          8.142          70.87          62.43          4.155         -16.14          132.8         -12.67         -40.26          91.24          26.53
    0.5773              -38.06          8.149          70.85          62.43          4.151         -16.13          132.8         -12.66         -40.23          91.25          26.56
    0.6254              -38.07          8.157          70.82          62.43          4.147         -16.12          132.8         -12.65          -40.2          91.26           26.6
    0.6735              -38.07          8.165           70.8          62.42          4.143         -16.11          132.7         -12.64         -40.17          91.26          26.63
    0.7216              -38.08          8.174          70.77          62.42          4.139          -16.1          132.7         -12.63         -40.13          91.27          26.67
    0.7697              -38.09          8.184          70.75          62.42          4.134         -16.08          132.7         -12.62          -40.1          91.28          26.72
    0.8178              -38.09          8.195          70.71          62.41          4.128         -16.07          132.7          -12.6         -40.05          91.29          26.76
    0.8659               -38.1          8.206          70.68          62.41          4.122         -16.05          132.7         -12.59         -40.01           91.3          26.81
     0.914              -38.11          8.219          70.64           62.4          4.116         -16.03          132.7         -12.57         -39.96          91.31          26.87
    0.9621              -38.11          8.233           70.6           62.4          4.109         -16.01          132.6         -12.55          -39.9          91.32          26.93
      1.01              -38.12          8.249          70.56          62.39          4.101         -15.99          132.6         -12.53         -39.84          91.33           27.0
     1.058              -38.13          8.266          70.51          62.39          4.093         -15.97          132.6         -12.51         -39.78          91.35          27.07
     1.106              -38.14          8.285          70.45          62.38          4.083         -15.94          132.6         -12.49          -39.7          91.36          27.16
     1.155              -38.16          8.306          70.39          62.38          4.073         -15.91          132.5         -12.46         -39.62          91.38          27.25
     1.203              -38.17          8.329          70.33          62.37          4.061         -15.88          132.5         -12.43         -39.53           91.4          27.35
     1.251              -38.19          8.355          70.25          62.36          4.048         -15.84          132.4          -12.4         -39.42          91.42          27.47
     1.299               -38.2          8.385          70.16          62.35          4.033          -15.8          132.4         -12.36         -39.31          91.45           27.6
     1.347              -38.22          8.418          70.07          62.34          4.016         -15.76          132.3         -12.31         -39.18          91.47          27.74
     1.395              -38.24          8.456          69.96          62.32          3.998         -15.71          132.3         -12.26         -39.03           91.5          27.91
     1.443              -38.27          8.499          69.83          62.31          3.976         -15.65          132.2         -12.21         -38.86          91.54           28.1
     1.491               -38.3          8.549          69.69          62.29          3.951         -15.58          132.1         -12.14         -38.66          91.58          28.31
     1.539              -38.33          8.606          69.52          62.27          3.922          -15.5          132.0         -12.07         -38.44          91.63          28.56
     1.588              -38.37          8.673          69.33          62.25          3.889         -15.41          131.9         -11.98         -38.18          91.68          28.85
     1.636              -38.42          8.751           69.1          62.22           3.85          -15.3          131.8         -11.88         -37.87          91.75          29.19
     1.684              -38.47          8.843          68.84          62.19          3.804         -15.17          131.6         -11.76         -37.51          91.83           29.6
     1.732              -38.53          8.952          68.52          62.15          3.749         -15.02          131.4         -11.62         -37.08          91.92          30.07
      1.78              -38.61          9.083          68.14          62.11          3.684         -14.84          131.2         -11.45         -36.57          92.02          30.65
     1.828               -38.7          9.241          67.68          62.05          3.605         -14.62          131.0         -11.24         -35.95          92.16          31.34
     1.876              -38.81          9.434          67.12          61.99          3.508         -14.35          130.6         -10.99         -35.19          92.32          32.18
     1.924              -38.95          9.673          66.43           61.9          3.389         -14.02          130.2         -10.68         -34.25          92.51          33.23
     1.972              -39.13          9.971          65.57           61.8           3.24         -13.61          129.7         -10.29         -33.08          92.76          34.53
      2.02              -39.35          10.35          64.48          61.67          3.052         -13.09          129.1         -9.806         -31.61          93.07          36.17
     2.069              -39.62          10.82           63.1          61.51          2.814         -12.43          128.3         -9.186         -29.74          93.47          38.25
     2.117              -39.98          11.43          61.33           61.3          2.509         -11.59          127.3         -8.393         -27.35          93.97          40.92
     2.165              -40.43          12.21          59.06          61.03          2.117         -10.51          126.0         -7.374         -24.28          94.62          44.34
     2.213              -41.02          13.21          56.16          60.69          1.617         -9.125          124.3         -6.073         -20.35          95.45          48.71
     2.261              -41.75          14.47          52.52          60.25         0.9875         -7.386          122.2         -4.438         -15.42          96.49          54.21
     2.309              -42.64           16.0          48.08          59.73         0.2209         -5.268          119.7         -2.445         -9.405          97.76           60.9
     2.357              -43.68          17.78          42.93          59.11        -0.6677         -2.812          116.7        -0.1345         -2.435          99.24          68.67
     2.405               -44.8           19.7          37.36          58.45          -1.63        -0.1529          113.5          2.367          5.111          100.8          77.08
     2.453              -45.92          21.63          31.79          57.79         -2.592          2.506          110.3          4.869          12.66          102.4          85.48
     2.502              -46.96           23.4          26.64          57.18         -3.481          4.962          107.3          7.179          19.63          103.9          93.25
      2.55              -47.85          24.93           22.2          56.65         -4.247          7.081          104.8          9.172          25.64          105.2          99.94
     2.598              -48.58          26.19          18.55          56.22         -4.876          8.819          102.7          10.81          30.58          106.2          105.4
     2.646              -49.16          27.19          15.66          55.88         -5.377           10.2          101.0          12.11           34.5          107.0          109.8
     2.694              -49.62          27.97          13.39          55.61         -5.768          11.28          99.72          13.13          37.57          107.7          113.2
     2.742              -49.98          28.58          11.62           55.4         -6.073          12.13           98.7          13.92          39.97          108.2          115.9
      2.79              -50.25          29.06          10.24          55.23         -6.312          12.79          97.91          14.54          41.84          108.6          118.0
     2.838              -50.47          29.44          9.151           55.1         -6.499          13.31          97.29          15.03          43.31          108.9          119.6
